# xmcd
#
# Track frame offsets:
#	150
#	14740
#	26860
#	40347
#	58252
#	91832
#	106755
#	126095
#	142207
#	168882
#	187017
#	200865
#
# Disc length: 2856 seconds
#
# Revision: 2
# Processed by: cddbd v1.4PL0 Copyright (c) Steve Scherf et al.
# Submitted via: EZCDDA 4.3.2
#
DISCID=b30b260c
DTITLE=La asociación - Asi es la vida
DYEAR=1900
DGENRE=
TTITLE0=Blues del casorio
TTITLE1=Boogie del pasado
TTITLE2=Yo creía
TTITLE3=Lobo solitario
TTITLE4=Blues de la medianoche
TTITLE5=Asociación blues
TTITLE6=Voy a seguir
TTITLE7=Boogie del fletero
TTITLE8=Recuerdos de Lane Street
TTITLE9=Luces Caramelos
TTITLE10=Greasy Gravy
TTITLE11=Asi es la vida
EXTD=
EXTT0=
EXTT1=
EXTT2=
EXTT3=
EXTT4=
EXTT5=
EXTT6=
EXTT7=
EXTT8=
EXTT9=
EXTT10=
EXTT11=
PLAYORDER=
